# xmcd
#
# Track frame offsets:
#	150
#	18052
#	35100
#	51527
#	67295
#	84702
#	98255
#	114367
#	125337
#	140512
#	153535
#	171547
#	189270
#	202380
#	216232
#	235680
#	252475
#	267442
#
# Disc length: 3730
#
# Revision: 4
# Processed by: cddbd v1.5.1PL0 Copyright (c) Steve Scherf et al.
# Submitted via: ExactAudioCopy v0.90b4
# Normalized: r2:DSETVAR1,TDELIM( - ),TSWAP
#
DISCID=110e9012
DTITLE=Various Artist - Super Country 91
DYEAR=1991
DGENRE=Country
TTITLE0=Dwight Yoakam - You're The One
TTITLE1=Reba McEntire - Rumor Has It
TTITLE2=Mark Chesnutt - Too Cold At Home
TTITLE3=Tanya Tucker - Oh What It did To Me
TTITLE4=Ian Tyson - Springtime In Alberta
TTITLE5=Carroll Baker - I Should HavePut A Hold On Love
TTITLE6=Billy Joe Royal - If The Jukebox Took Tear Drops
TTITLE7=Marty Stuart - Till I Found You
TTITLE8=Holly Dunn - Heart Full Of Love
TTITLE9=Kathy Mattea - The Battle Hymn Of Love
TTITLE10=Vince Gill - Never Knew Lonely
TTITLE11=Patty Loveless - The Night's Too Long
TTITLE12=Ray Kennedy - What A Way To Go
TTITLE13=George Fox - Fell In Love And I Can't Get Out
TTITLE14=Joan Kennedy - Just Can't Let Go
TTITLE15=T. Graham Brown - Moonshadow Road
TTITLE16=Billy Dean - Somewhere In My Broken Heart
TTITLE17=Lee Greenwood - Hopelessly Yours
EXTD=
EXTT0=
EXTT1=
EXTT2=
EXTT3=
EXTT4=
EXTT5=
EXTT6=
EXTT7=
EXTT8=
EXTT9=
EXTT10=
EXTT11=
EXTT12=
EXTT13=
EXTT14=
EXTT15=
EXTT16=
EXTT17=with Suzy Bogguss\n
PLAYORDER=
